<svg width="32" height="32" viewBox="0 0 32 32" fill="none" xmlns="http://www.w3.org/2000/svg">
<g clip-path="url(#clip0_2621_953)">
<path fill-rule="evenodd" clip-rule="evenodd" d="M16.6621 0.0903667L28.984 5.89368C29.3134 6.04992 29.5242 6.38122 29.5242 6.74638V16.7718C29.5242 24.9318 22.4541 28.768 17.2946 31.5708L16.7129 31.8871C16.5718 31.9624 16.4174 32.0019 16.2612 32.0019C16.1068 32.0019 15.9525 31.9624 15.8113 31.8871L15.2296 31.5708C10.0682 28.768 3 24.9318 3 16.7718V6.74635C3 6.38118 3.21083 6.04988 3.54023 5.89365L15.8621 0.09035C16.1143 -0.0301167 16.4099 -0.0301 16.6621 0.0903667ZM12.8848 6.38872C9.95022 6.38872 7.56338 8.77743 7.56338 11.712C7.56338 14.6466 9.95022 17.0334 12.8848 17.0334C12.9168 17.0334 12.9488 17.0334 12.9808 17.0315L13.9559 18.0066H15.3507V19.9529H17.297V21.3497L18.8236 22.8744H24.0471V17.6508L18.2043 11.8061C18.2062 11.776 18.2062 11.744 18.2062 11.712C18.2062 8.77745 15.8194 6.38873 12.8848 6.38873V6.38872ZM12.8848 8.27108C14.7803 8.27108 16.3239 9.81648 16.3069 11.8814L16.241 12.5026L22.1648 18.4301V20.992H19.6029L19.1794 20.5704V18.0706H17.233V16.1243H14.7351L13.6716 15.0626L12.8848 15.1511C10.9892 15.1511 9.44572 13.6094 9.44572 11.712C9.44572 9.81648 10.9892 8.27108 12.8848 8.27108H12.8848ZM12.9678 10.3541C12.1885 10.3541 11.556 10.9865 11.556 11.7658C11.556 12.5451 12.1885 13.1776 12.9678 13.1776C13.7471 13.1776 14.3796 12.5451 14.3796 11.7658C14.3796 10.9865 13.7471 10.3541 12.9678 10.3541Z" fill="url(#paint0_linear_2621_953)"/>
</g>
<defs>
<linearGradient id="paint0_linear_2621_953" x1="16.2621" y1="0" x2="16.2621" y2="32.0019" gradientUnits="userSpaceOnUse">
<stop stop-color="#7C9BFF"/>
<stop offset="1" stop-color="#6342F5"/>
</linearGradient>
<clipPath id="clip0_2621_953">
<rect width="32" height="32" fill="white"/>
</clipPath>
</defs>
</svg>
