<svg width="32" height="32" viewBox="0 0 32 32" fill="none" xmlns="http://www.w3.org/2000/svg">
<path d="M9 26C9.55228 26 10 25.5523 10 25C10 24.4477 9.55228 24 9 24C8.44772 24 8 24.4477 8 25C8 25.5523 8.44772 26 9 26Z" fill="url(#paint0_linear_2621_955)"/>
<path d="M17.7998 24.4C17.6998 24.2 13.8998 19 8.9998 19C4.0998 19 0.299805 24.2 0.199805 24.4C-0.00019531 24.7 -0.00019531 25.2 0.199805 25.6C0.299805 25.8 4.0998 31 8.9998 31C13.8998 31 17.6998 25.8 17.7998 25.6C18.0998 25.2 18.0998 24.8 17.7998 24.4ZM8.9998 28C7.2998 28 5.9998 26.7 5.9998 25C5.9998 23.3 7.2998 22 8.9998 22C10.6998 22 11.9998 23.3 11.9998 25C11.9998 26.7 10.6998 28 8.9998 28Z" fill="url(#paint1_linear_2621_955)"/>
<path d="M9 26C9.55228 26 10 25.5523 10 25C10 24.4477 9.55228 24 9 24C8.44772 24 8 24.4477 8 25C8 25.5523 8.44772 26 9 26Z" fill="url(#paint2_linear_2621_955)"/>
<path d="M29 8H20.1L17.8 4.5C17.7 4.2 17.3 4 17 4H7C5.3 4 4 5.3 4 7V18.4C5.5 17.6 7.1 17 9 17C14.8 17 19 22.6 19.4 23.3C20.2 24.3 20.2 25.8 19.4 26.8C19.3 27 18.9 27.4 18.4 28.1H29C30.7 28.1 32 26.8 32 25.1V11C32 9.3 30.7 8 29 8ZM30 23.6L21.4 10H29C29.6 10 30 10.4 30 11V23.6Z" fill="url(#paint3_linear_2621_955)"/>
<defs>
<linearGradient id="paint0_linear_2621_955" x1="9" y1="24" x2="9" y2="26" gradientUnits="userSpaceOnUse">
<stop stop-color="#7C9BFF"/>
<stop offset="1" stop-color="#6342F5"/>
</linearGradient>
<linearGradient id="paint1_linear_2621_955" x1="9.0373" y1="19" x2="9.0373" y2="31" gradientUnits="userSpaceOnUse">
<stop stop-color="#7C9BFF"/>
<stop offset="1" stop-color="#6342F5"/>
</linearGradient>
<linearGradient id="paint2_linear_2621_955" x1="9" y1="24" x2="9" y2="26" gradientUnits="userSpaceOnUse">
<stop stop-color="#7C9BFF"/>
<stop offset="1" stop-color="#6342F5"/>
</linearGradient>
<linearGradient id="paint3_linear_2621_955" x1="18" y1="4" x2="18" y2="28.1" gradientUnits="userSpaceOnUse">
<stop stop-color="#7C9BFF"/>
<stop offset="1" stop-color="#6342F5"/>
</linearGradient>
</defs>
</svg>
