<svg width="32" height="32" viewBox="0 0 32 32" fill="none" xmlns="http://www.w3.org/2000/svg">
<g clip-path="url(#clip0_2621_981)">
<path d="M25.4705 17.8339V15.1396C25.4705 9.89556 21.2194 5.64355 15.9745 5.64355C10.7296 5.64355 6.47852 9.89555 6.47852 15.1396V17.834C6.47852 23.0781 10.7296 27.33 15.9745 27.33C21.2194 27.33 25.4705 23.0781 25.4705 17.8339Z" fill="url(#paint0_linear_2621_981)"/>
<path d="M30.3978 11.3803C28.7278 4.92663 22.8744 0.144754 15.9049 0.143066C8.91069 0.144754 3.04238 4.95969 1.39381 11.4472C0.575438 11.7985 0 12.6113 0 13.5587V19.3029C0 20.5711 1.03013 21.6004 2.29669 21.6004C3.56656 21.6004 4.595 20.5712 4.595 19.3029V13.5587C4.595 12.6649 4.07912 11.8994 3.33344 11.5191C3.95506 9.36213 5.10594 7.42832 6.65356 5.87982C9.028 3.50707 12.2953 2.04125 15.9049 2.04125C19.5144 2.04125 22.7817 3.50713 25.1562 5.87982C26.7237 7.44982 27.8861 9.41663 28.4996 11.6101C27.8448 12.0143 27.405 12.7327 27.405 13.5587V19.3029C27.405 20.2132 27.9374 20.9936 28.7063 21.3648C28.4003 22.5173 27.9623 23.6103 27.4381 24.5718C26.9256 25.5151 26.3352 26.3294 25.7251 26.9528C25.2687 26.6089 24.7066 26.398 24.093 26.398C22.5851 26.398 21.3631 27.6199 21.3631 29.1271C21.3631 30.6343 22.5851 31.8571 24.093 31.8571C25.5994 31.8571 26.823 30.6343 26.823 29.1271C26.823 28.7915 26.7535 28.4731 26.6427 28.1755L26.7816 28.0449C28.2946 26.4997 29.5579 24.1568 30.2143 21.5384C31.2361 21.3044 32 20.3942 32 19.3029V13.5587C32 12.5351 31.3254 11.6771 30.3978 11.3803Z" fill="url(#paint1_linear_2621_981)"/>
</g>
<defs>
<linearGradient id="paint0_linear_2621_981" x1="15.9745" y1="5.64355" x2="15.9745" y2="27.33" gradientUnits="userSpaceOnUse">
<stop stop-color="#7C9BFF"/>
<stop offset="1" stop-color="#6342F5"/>
</linearGradient>
<linearGradient id="paint1_linear_2621_981" x1="16" y1="0.143066" x2="16" y2="31.8571" gradientUnits="userSpaceOnUse">
<stop stop-color="#7C9BFF"/>
<stop offset="1" stop-color="#6342F5"/>
</linearGradient>
<clipPath id="clip0_2621_981">
<rect width="32" height="32" fill="white"/>
</clipPath>
</defs>
</svg>
